<?xml version="1.0" standalone="no"?>
<!DOCTYPE svg PUBLIC "-//W3C//DTD SVG 20010904//EN"
 "http://www.w3.org/TR/2001/REC-SVG-20010904/DTD/svg10.dtd">
<svg version="1.0" xmlns="http://www.w3.org/2000/svg"
 width="300.000000pt" height="300.000000pt" viewBox="0 0 300.000000 300.000000"
 preserveAspectRatio="xMidYMid meet">
<metadata>
Created by potrace 1.14, written by Peter Selinger 2001-2017
</metadata>
<g transform="translate(0.000000,300.000000) scale(0.100000,-0.100000)"
fill="#000000" stroke="none">
<path d="M150 1500 l0 -1350 1350 0 1350 0 0 1350 0 1350 -1350 0 -1350 0 0
-1350z m1477 666 c23 -20 28 -32 28 -71 0 -60 -35 -95 -96 -95 -54 0 -78 14
-95 57 -18 42 -5 94 29 118 34 24 101 19 134 -9z m533 -536 l0 -520 -75 0 -75
0 0 509 0 510 58 6 c51 6 82 10 90 14 1 0 2 -233 2 -519z m-1374 201 c56 -25
112 -83 141 -148 29 -62 48 -177 39 -228 l-7 -35 -240 0 -241 0 7 -32 c20 -97
62 -146 144 -168 53 -14 108 -6 184 27 31 14 59 24 60 22 36 -45 57 -78 57
-87 0 -6 -33 -27 -74 -47 -100 -50 -200 -58 -306 -26 -60 19 -82 31 -125 75
-77 77 -99 140 -99 286 0 96 4 124 22 172 41 101 131 183 229 208 52 13 159 3
209 -19z m892 -333 c-3 -330 -4 -345 -26 -400 -30 -74 -105 -156 -179 -195
-56 -30 -184 -74 -250 -86 -31 -6 -32 -5 -42 44 -16 74 -16 74 48 87 82 17
194 75 231 120 54 65 60 107 60 394 l0 257 -142 3 -143 3 -3 44 c-6 75 -18 71
228 71 l221 0 -3 -342z m951 325 c-16 -21 -186 -210 -241 -269 l-39 -41 155
-192 c86 -106 158 -197 162 -202 3 -5 -35 -9 -89 -9 l-95 0 -143 183 c-78 100
-148 189 -156 198 -11 14 6 37 134 182 l147 167 89 0 c84 0 89 -1 76 -17z"/>
<path d="M600 1733 c-60 -24 -100 -82 -114 -165 l-7 -38 166 0 165 0 0 38 c0
46 -36 119 -72 145 -27 20 -110 32 -138 20z"/>
</g>
</svg>
